<mxfile host="app.diagrams.net" modified="2022-05-02T18:41:26.835Z" agent="5.0 (Windows NT 10.0; Win64; x64) AppleWebKit/537.36 (KHTML, like Gecko) Chrome/100.0.4896.127 Safari/537.36" etag="teZ9Q8o6o1_viYzv-EkW" version="17.5.0" type="github">
  <diagram id="dTfj90PUCVXT2a966o4E" name="Page-1">
    <mxGraphModel dx="1912" dy="1233" grid="1" gridSize="10" guides="1" tooltips="1" connect="1" arrows="1" fold="1" page="1" pageScale="1" pageWidth="850" pageHeight="1100" math="1" shadow="0">
      <root>
        <mxCell id="0" />
        <mxCell id="1" parent="0" />
        <mxCell id="18uAIJdaMSpTFabtGW1M-1" value="&lt;font style=&quot;font-size: 40px&quot;&gt;1.&amp;nbsp;&lt;/font&gt;" style="text;html=1;align=center;verticalAlign=middle;resizable=0;points=[];autosize=1;strokeColor=none;fillColor=none;" vertex="1" parent="1">
          <mxGeometry x="40" y="130" width="60" height="30" as="geometry" />
        </mxCell>
        <mxCell id="18uAIJdaMSpTFabtGW1M-2" value="OBSERVER&amp;nbsp;" style="text;html=1;align=center;verticalAlign=middle;resizable=0;points=[];autosize=1;strokeColor=none;fillColor=none;fontSize=40;" vertex="1" parent="1">
          <mxGeometry x="100" y="120" width="250" height="50" as="geometry" />
        </mxCell>
        <mxCell id="18uAIJdaMSpTFabtGW1M-3" value="&lt;span style=&quot;font-size: 20px&quot;&gt;&lt;br&gt;&lt;/span&gt;" style="text;html=1;align=center;verticalAlign=middle;resizable=0;points=[];autosize=1;strokeColor=none;fillColor=none;fontSize=40;" vertex="1" parent="1">
          <mxGeometry x="200" y="210" width="20" height="60" as="geometry" />
        </mxCell>
        <mxCell id="18uAIJdaMSpTFabtGW1M-4" value="ABILITY TO&lt;br&gt;&amp;nbsp; &amp;nbsp; &amp;nbsp; &amp;nbsp; &amp;nbsp; &amp;nbsp; &amp;nbsp; &amp;nbsp; &amp;nbsp; CONSISTENTLY&lt;br&gt;&amp;nbsp; &amp;nbsp; &amp;nbsp; &amp;nbsp; &amp;nbsp; &amp;nbsp; &amp;nbsp; &amp;nbsp; MEASURE OUTSIDE&amp;nbsp;&lt;br&gt;&amp;nbsp; &amp;nbsp; &amp;nbsp; &amp;nbsp;PHENOMENON" style="text;html=1;align=center;verticalAlign=middle;resizable=0;points=[];autosize=1;strokeColor=none;fillColor=none;fontSize=20;" vertex="1" parent="1">
          <mxGeometry x="85" y="165" width="300" height="100" as="geometry" />
        </mxCell>
        <mxCell id="18uAIJdaMSpTFabtGW1M-5" value="$$\approx$$" style="text;html=1;align=center;verticalAlign=middle;resizable=0;points=[];autosize=1;strokeColor=none;fillColor=none;fontSize=20;" vertex="1" parent="1">
          <mxGeometry x="129" y="187" width="130" height="30" as="geometry" />
        </mxCell>
        <mxCell id="18uAIJdaMSpTFabtGW1M-6" value="&lt;span style=&quot;font-size: 40px&quot;&gt;SENTIENT&lt;/span&gt;" style="text;html=1;align=center;verticalAlign=middle;resizable=0;points=[];autosize=1;strokeColor=none;fillColor=none;fontSize=20;" vertex="1" parent="1">
          <mxGeometry x="100" y="280" width="210" height="40" as="geometry" />
        </mxCell>
        <mxCell id="18uAIJdaMSpTFabtGW1M-7" value="2." style="text;html=1;align=center;verticalAlign=middle;resizable=0;points=[];autosize=1;strokeColor=none;fillColor=none;fontSize=40;" vertex="1" parent="1">
          <mxGeometry x="40" y="270" width="50" height="50" as="geometry" />
        </mxCell>
        <mxCell id="18uAIJdaMSpTFabtGW1M-8" value="AWARE :" style="text;html=1;align=center;verticalAlign=middle;resizable=0;points=[];autosize=1;strokeColor=none;fillColor=none;fontSize=40;" vertex="1" parent="1">
          <mxGeometry x="100" y="435" width="180" height="50" as="geometry" />
        </mxCell>
        <mxCell id="18uAIJdaMSpTFabtGW1M-9" value="ANTI-ENTROPIC&lt;br&gt;UTILITY" style="text;html=1;align=center;verticalAlign=middle;resizable=0;points=[];autosize=1;strokeColor=none;fillColor=none;fontSize=40;" vertex="1" parent="1">
          <mxGeometry x="85" y="620" width="330" height="100" as="geometry" />
        </mxCell>
        <mxCell id="18uAIJdaMSpTFabtGW1M-10" value="3." style="text;html=1;align=center;verticalAlign=middle;resizable=0;points=[];autosize=1;strokeColor=none;fillColor=none;fontSize=40;" vertex="1" parent="1">
          <mxGeometry x="40" y="435" width="50" height="50" as="geometry" />
        </mxCell>
        <mxCell id="18uAIJdaMSpTFabtGW1M-11" value="4." style="text;html=1;align=center;verticalAlign=middle;resizable=0;points=[];autosize=1;strokeColor=none;fillColor=none;fontSize=40;" vertex="1" parent="1">
          <mxGeometry x="40" y="620" width="50" height="50" as="geometry" />
        </mxCell>
        <mxCell id="18uAIJdaMSpTFabtGW1M-13" value="&lt;div style=&quot;text-align: left&quot;&gt;&lt;span&gt;MAP&amp;nbsp; &amp;nbsp; &amp;nbsp; &amp;nbsp; &amp;nbsp; &amp;nbsp; &amp;nbsp; &amp;nbsp; MEASUREMENT&lt;/span&gt;&lt;/div&gt;&lt;div style=&quot;text-align: left&quot;&gt;&lt;span&gt;TO&amp;nbsp; &amp;nbsp; &amp;nbsp; &amp;nbsp; &amp;nbsp; &amp;nbsp; &amp;nbsp; &amp;nbsp; &amp;nbsp;INTERNALLY RELEVANT&lt;/span&gt;&lt;/div&gt;&lt;div style=&quot;text-align: left&quot;&gt;&lt;span&gt;METRIC&lt;/span&gt;&lt;/div&gt;" style="text;html=1;align=center;verticalAlign=middle;resizable=0;points=[];autosize=1;strokeColor=none;fillColor=none;fontSize=20;" vertex="1" parent="1">
          <mxGeometry x="172" y="323" width="370" height="80" as="geometry" />
        </mxCell>
        <mxCell id="18uAIJdaMSpTFabtGW1M-14" value="" style="endArrow=classic;html=1;rounded=0;fontSize=20;" edge="1" parent="1">
          <mxGeometry width="50" height="50" relative="1" as="geometry">
            <mxPoint x="150" y="160" as="sourcePoint" />
            <mxPoint x="180" y="180" as="targetPoint" />
            <Array as="points">
              <mxPoint x="150" y="180" />
            </Array>
          </mxGeometry>
        </mxCell>
        <mxCell id="18uAIJdaMSpTFabtGW1M-15" value="" style="endArrow=classic;html=1;rounded=0;fontSize=20;" edge="1" parent="1">
          <mxGeometry width="50" height="50" relative="1" as="geometry">
            <mxPoint x="150" y="320" as="sourcePoint" />
            <mxPoint x="180" y="340" as="targetPoint" />
            <Array as="points">
              <mxPoint x="150" y="340" />
            </Array>
          </mxGeometry>
        </mxCell>
        <mxCell id="18uAIJdaMSpTFabtGW1M-16" value="MEMBRANE&lt;br&gt;BOUNDARY&lt;br&gt;(SET)" style="text;html=1;align=center;verticalAlign=middle;resizable=0;points=[];autosize=1;strokeColor=none;fillColor=none;fontSize=40;" vertex="1" parent="1">
          <mxGeometry x="600" y="225" width="250" height="150" as="geometry" />
        </mxCell>
        <mxCell id="18uAIJdaMSpTFabtGW1M-17" value="(Masbow&lt;br&gt;Health)" style="text;html=1;align=center;verticalAlign=middle;resizable=0;points=[];autosize=1;strokeColor=none;fillColor=none;fontSize=20;" vertex="1" parent="1">
          <mxGeometry x="360" y="370" width="100" height="50" as="geometry" />
        </mxCell>
        <mxCell id="18uAIJdaMSpTFabtGW1M-18" value="" style="rounded=1;whiteSpace=wrap;html=1;fontSize=20;fillColor=none;" vertex="1" parent="1">
          <mxGeometry x="100" y="120" width="240" height="40" as="geometry" />
        </mxCell>
        <mxCell id="18uAIJdaMSpTFabtGW1M-19" value="" style="rounded=1;whiteSpace=wrap;html=1;fontSize=20;fillColor=none;" vertex="1" parent="1">
          <mxGeometry x="100" y="275" width="210" height="40" as="geometry" />
        </mxCell>
        <mxCell id="18uAIJdaMSpTFabtGW1M-20" value="" style="rounded=1;whiteSpace=wrap;html=1;fontSize=20;fillColor=none;" vertex="1" parent="1">
          <mxGeometry x="105" y="435" width="175" height="40" as="geometry" />
        </mxCell>
        <mxCell id="18uAIJdaMSpTFabtGW1M-21" value="&lt;font style=&quot;font-size: 40px&quot;&gt;-NESS&lt;/font&gt;" style="text;html=1;align=center;verticalAlign=middle;resizable=0;points=[];autosize=1;strokeColor=none;fillColor=none;fontSize=20;" vertex="1" parent="1">
          <mxGeometry x="330" y="125" width="140" height="40" as="geometry" />
        </mxCell>
        <mxCell id="18uAIJdaMSpTFabtGW1M-22" value="&lt;font style=&quot;font-size: 40px&quot; color=&quot;#0000ff&quot;&gt;-NESS&lt;/font&gt;" style="text;html=1;align=center;verticalAlign=middle;resizable=0;points=[];autosize=1;strokeColor=none;fillColor=none;fontSize=20;" vertex="1" parent="1">
          <mxGeometry x="300" y="280" width="140" height="40" as="geometry" />
        </mxCell>
        <mxCell id="18uAIJdaMSpTFabtGW1M-23" value="&lt;font style=&quot;font-size: 40px&quot; color=&quot;#0000ff&quot;&gt;-NESS&lt;/font&gt;" style="text;html=1;align=center;verticalAlign=middle;resizable=0;points=[];autosize=1;strokeColor=none;fillColor=none;fontSize=20;" vertex="1" parent="1">
          <mxGeometry x="275" y="440" width="140" height="40" as="geometry" />
        </mxCell>
        <mxCell id="18uAIJdaMSpTFabtGW1M-29" value="" style="endArrow=none;dashed=1;html=1;rounded=0;fontSize=40;fontColor=#0000FF;strokeWidth=2;" edge="1" parent="1">
          <mxGeometry width="50" height="50" relative="1" as="geometry">
            <mxPoint x="249" y="399" as="sourcePoint" />
            <mxPoint x="189" y="399" as="targetPoint" />
            <Array as="points">
              <mxPoint x="249" y="399" />
            </Array>
          </mxGeometry>
        </mxCell>
        <mxCell id="18uAIJdaMSpTFabtGW1M-30" value="" style="endArrow=none;dashed=1;html=1;rounded=0;fontSize=40;fontColor=#0000FF;strokeWidth=2;" edge="1" parent="1">
          <mxGeometry width="50" height="50" relative="1" as="geometry">
            <mxPoint x="120" y="430" as="sourcePoint" />
            <mxPoint x="120" y="320" as="targetPoint" />
          </mxGeometry>
        </mxCell>
        <mxCell id="18uAIJdaMSpTFabtGW1M-32" value="&lt;font color=&quot;#000000&quot;&gt;TIME&lt;/font&gt;" style="text;html=1;align=center;verticalAlign=middle;resizable=0;points=[];autosize=1;strokeColor=none;fillColor=none;fontSize=20;fontColor=#0000FF;" vertex="1" parent="1">
          <mxGeometry x="112" y="485" width="60" height="30" as="geometry" />
        </mxCell>
        <mxCell id="18uAIJdaMSpTFabtGW1M-33" value="SPACE" style="text;html=1;align=center;verticalAlign=middle;resizable=0;points=[];autosize=1;strokeColor=none;fillColor=none;fontSize=20;fontColor=#000000;" vertex="1" parent="1">
          <mxGeometry x="165" y="485" width="80" height="30" as="geometry" />
        </mxCell>
        <mxCell id="18uAIJdaMSpTFabtGW1M-34" value="ENTROPY" style="text;html=1;align=center;verticalAlign=middle;resizable=0;points=[];autosize=1;strokeColor=none;fillColor=none;fontSize=20;fontColor=#000000;" vertex="1" parent="1">
          <mxGeometry x="340" y="485" width="110" height="30" as="geometry" />
        </mxCell>
        <mxCell id="18uAIJdaMSpTFabtGW1M-35" value="&lt;font color=&quot;#ff0000&quot;&gt;ENERGY&lt;/font&gt;" style="text;html=1;align=center;verticalAlign=middle;resizable=0;points=[];autosize=1;strokeColor=none;fillColor=none;fontSize=20;fontColor=#000000;" vertex="1" parent="1">
          <mxGeometry x="245" y="485" width="100" height="30" as="geometry" />
        </mxCell>
        <mxCell id="18uAIJdaMSpTFabtGW1M-36" value="" style="rounded=1;whiteSpace=wrap;html=1;fontSize=20;fontColor=#FF0000;fillColor=none;dashed=1;" vertex="1" parent="1">
          <mxGeometry x="112" y="487.5" width="58" height="25" as="geometry" />
        </mxCell>
        <mxCell id="18uAIJdaMSpTFabtGW1M-37" value="" style="rounded=1;whiteSpace=wrap;html=1;fontSize=20;fontColor=#FF0000;fillColor=none;dashed=1;" vertex="1" parent="1">
          <mxGeometry x="172" y="487.5" width="70" height="25" as="geometry" />
        </mxCell>
        <mxCell id="18uAIJdaMSpTFabtGW1M-38" value="" style="rounded=1;whiteSpace=wrap;html=1;fontSize=20;fontColor=#FF0000;fillColor=none;dashed=1;strokeColor=#FF0000;" vertex="1" parent="1">
          <mxGeometry x="245" y="487" width="95" height="25" as="geometry" />
        </mxCell>
        <mxCell id="18uAIJdaMSpTFabtGW1M-39" value="" style="rounded=1;whiteSpace=wrap;html=1;fontSize=20;fontColor=#FF0000;fillColor=none;dashed=1;" vertex="1" parent="1">
          <mxGeometry x="341" y="487.5" width="109" height="25" as="geometry" />
        </mxCell>
        <mxCell id="18uAIJdaMSpTFabtGW1M-40" value="&lt;font color=&quot;#0e9c5e&quot;&gt;SELF&lt;/font&gt;" style="text;html=1;align=center;verticalAlign=middle;resizable=0;points=[];autosize=1;strokeColor=none;fillColor=none;fontSize=20;fontColor=#FF0000;" vertex="1" parent="1">
          <mxGeometry x="107" y="550" width="70" height="30" as="geometry" />
        </mxCell>
        <mxCell id="18uAIJdaMSpTFabtGW1M-41" value="OTHERs" style="text;html=1;align=center;verticalAlign=middle;resizable=0;points=[];autosize=1;strokeColor=none;fillColor=none;fontSize=20;fontColor=#0E9C5E;" vertex="1" parent="1">
          <mxGeometry x="160" y="550" width="100" height="30" as="geometry" />
        </mxCell>
        <mxCell id="18uAIJdaMSpTFabtGW1M-42" value="&lt;font color=&quot;#000000&quot;&gt;ENV&lt;/font&gt;" style="text;html=1;align=center;verticalAlign=middle;resizable=0;points=[];autosize=1;strokeColor=none;fillColor=none;fontSize=20;fontColor=#0E9C5E;" vertex="1" parent="1">
          <mxGeometry x="250" y="550" width="60" height="30" as="geometry" />
        </mxCell>
        <mxCell id="18uAIJdaMSpTFabtGW1M-43" value="" style="rounded=0;whiteSpace=wrap;html=1;fontSize=20;fontColor=#000000;strokeColor=#0E9C5E;fillColor=none;" vertex="1" parent="1">
          <mxGeometry x="112" y="550" width="58" height="30" as="geometry" />
        </mxCell>
        <mxCell id="18uAIJdaMSpTFabtGW1M-44" value="" style="rounded=0;whiteSpace=wrap;html=1;fontSize=20;fontColor=#000000;strokeColor=#0E9C5E;fillColor=none;" vertex="1" parent="1">
          <mxGeometry x="170" y="550" width="80" height="30" as="geometry" />
        </mxCell>
        <mxCell id="18uAIJdaMSpTFabtGW1M-45" value="" style="rounded=0;whiteSpace=wrap;html=1;fontSize=20;fontColor=#000000;strokeColor=#000000;fillColor=none;dashed=1;" vertex="1" parent="1">
          <mxGeometry x="252.5" y="550" width="57.5" height="30" as="geometry" />
        </mxCell>
        <mxCell id="18uAIJdaMSpTFabtGW1M-46" value="&lt;font color=&quot;#0e9c5e&quot;&gt;$$/ \partial [x]$$&lt;/font&gt;" style="text;html=1;align=center;verticalAlign=middle;resizable=0;points=[];autosize=1;strokeColor=none;fillColor=none;fontSize=20;fontColor=#000000;" vertex="1" parent="1">
          <mxGeometry x="150" y="580" width="160" height="30" as="geometry" />
        </mxCell>
        <mxCell id="18uAIJdaMSpTFabtGW1M-48" value="" style="rounded=1;whiteSpace=wrap;html=1;fontSize=20;fontColor=#0E9C5E;strokeColor=#000000;fillColor=none;" vertex="1" parent="1">
          <mxGeometry x="90" y="620" width="320" height="100" as="geometry" />
        </mxCell>
        <mxCell id="18uAIJdaMSpTFabtGW1M-49" value="&lt;font color=&quot;#000000&quot; style=&quot;font-size: 40px&quot;&gt;$$\{ \mathcal{F}; \mathcal{S} ; \mathcal{A}; \}$$&lt;/font&gt;" style="text;html=1;align=center;verticalAlign=middle;resizable=0;points=[];autosize=1;strokeColor=none;fillColor=none;fontSize=20;fontColor=#0E9C5E;" vertex="1" parent="1">
          <mxGeometry x="-190" y="740" width="850" height="40" as="geometry" />
        </mxCell>
        <mxCell id="18uAIJdaMSpTFabtGW1M-50" value="" style="rounded=1;whiteSpace=wrap;html=1;fontSize=40;fontColor=#000000;strokeColor=#000000;fillColor=none;" vertex="1" parent="1">
          <mxGeometry x="600" y="225" width="250" height="155" as="geometry" />
        </mxCell>
        <mxCell id="18uAIJdaMSpTFabtGW1M-51" value="" style="endArrow=classic;html=1;rounded=0;fontSize=40;fontColor=#000000;strokeWidth=2;" edge="1" parent="1">
          <mxGeometry width="50" height="50" relative="1" as="geometry">
            <mxPoint x="472" y="160" as="sourcePoint" />
            <mxPoint x="590" y="240" as="targetPoint" />
          </mxGeometry>
        </mxCell>
        <mxCell id="18uAIJdaMSpTFabtGW1M-52" value="" style="endArrow=classic;html=1;rounded=0;fontSize=40;fontColor=#000000;strokeWidth=2;" edge="1" parent="1">
          <mxGeometry width="50" height="50" relative="1" as="geometry">
            <mxPoint x="450" y="302" as="sourcePoint" />
            <mxPoint x="580" y="301.90999999999997" as="targetPoint" />
          </mxGeometry>
        </mxCell>
        <mxCell id="18uAIJdaMSpTFabtGW1M-53" value="" style="endArrow=classic;html=1;rounded=0;fontSize=40;fontColor=#000000;strokeWidth=2;" edge="1" parent="1">
          <mxGeometry width="50" height="50" relative="1" as="geometry">
            <mxPoint x="440" y="480" as="sourcePoint" />
            <mxPoint x="592" y="370" as="targetPoint" />
          </mxGeometry>
        </mxCell>
        <mxCell id="18uAIJdaMSpTFabtGW1M-54" value="" style="endArrow=classic;html=1;rounded=0;fontSize=40;fontColor=#000000;strokeWidth=2;" edge="1" parent="1">
          <mxGeometry width="50" height="50" relative="1" as="geometry">
            <mxPoint x="420" y="630" as="sourcePoint" />
            <mxPoint x="630" y="390" as="targetPoint" />
          </mxGeometry>
        </mxCell>
        <mxCell id="18uAIJdaMSpTFabtGW1M-57" value="" style="shape=waypoint;sketch=0;fillStyle=solid;size=6;pointerEvents=1;points=[];fillColor=none;resizable=0;rotatable=0;perimeter=centerPerimeter;snapToPoint=1;fontSize=40;fontColor=#000000;strokeColor=#000000;strokeWidth=2;" vertex="1" parent="1">
          <mxGeometry x="700" y="590" width="40" height="40" as="geometry" />
        </mxCell>
        <mxCell id="18uAIJdaMSpTFabtGW1M-58" value="" style="shape=waypoint;sketch=0;fillStyle=solid;size=6;pointerEvents=1;points=[];fillColor=none;resizable=0;rotatable=0;perimeter=centerPerimeter;snapToPoint=1;fontSize=40;fontColor=#000000;strokeColor=#000000;strokeWidth=2;" vertex="1" parent="1">
          <mxGeometry x="740" y="590" width="40" height="40" as="geometry" />
        </mxCell>
        <mxCell id="18uAIJdaMSpTFabtGW1M-59" value="" style="shape=waypoint;sketch=0;fillStyle=solid;size=6;pointerEvents=1;points=[];fillColor=none;resizable=0;rotatable=0;perimeter=centerPerimeter;snapToPoint=1;fontSize=40;fontColor=#000000;strokeColor=#000000;strokeWidth=2;" vertex="1" parent="1">
          <mxGeometry x="700" y="620" width="40" height="40" as="geometry" />
        </mxCell>
        <mxCell id="18uAIJdaMSpTFabtGW1M-60" value="" style="shape=waypoint;sketch=0;fillStyle=solid;size=6;pointerEvents=1;points=[];fillColor=none;resizable=0;rotatable=0;perimeter=centerPerimeter;snapToPoint=1;fontSize=40;fontColor=#000000;strokeColor=#000000;strokeWidth=2;" vertex="1" parent="1">
          <mxGeometry x="740" y="620" width="40" height="40" as="geometry" />
        </mxCell>
        <mxCell id="18uAIJdaMSpTFabtGW1M-61" value="" style="shape=waypoint;sketch=0;fillStyle=solid;size=6;pointerEvents=1;points=[];fillColor=none;resizable=0;rotatable=0;perimeter=centerPerimeter;snapToPoint=1;fontSize=40;fontColor=#000000;strokeColor=#000000;strokeWidth=2;" vertex="1" parent="1">
          <mxGeometry x="700" y="650" width="40" height="40" as="geometry" />
        </mxCell>
        <mxCell id="18uAIJdaMSpTFabtGW1M-62" value="" style="shape=waypoint;sketch=0;fillStyle=solid;size=6;pointerEvents=1;points=[];fillColor=none;resizable=0;rotatable=0;perimeter=centerPerimeter;snapToPoint=1;fontSize=40;fontColor=#000000;strokeColor=#000000;strokeWidth=2;" vertex="1" parent="1">
          <mxGeometry x="740" y="650" width="40" height="40" as="geometry" />
        </mxCell>
        <mxCell id="18uAIJdaMSpTFabtGW1M-63" value="" style="shape=waypoint;sketch=0;fillStyle=solid;size=6;pointerEvents=1;points=[];fillColor=none;resizable=0;rotatable=0;perimeter=centerPerimeter;snapToPoint=1;fontSize=40;fontColor=#000000;strokeColor=#000000;strokeWidth=2;" vertex="1" parent="1">
          <mxGeometry x="700" y="680" width="40" height="40" as="geometry" />
        </mxCell>
        <mxCell id="18uAIJdaMSpTFabtGW1M-64" value="" style="shape=waypoint;sketch=0;fillStyle=solid;size=6;pointerEvents=1;points=[];fillColor=none;resizable=0;rotatable=0;perimeter=centerPerimeter;snapToPoint=1;fontSize=40;fontColor=#000000;strokeColor=#000000;strokeWidth=2;" vertex="1" parent="1">
          <mxGeometry x="740" y="680" width="40" height="40" as="geometry" />
        </mxCell>
        <mxCell id="18uAIJdaMSpTFabtGW1M-65" value="" style="shape=waypoint;sketch=0;fillStyle=solid;size=6;pointerEvents=1;points=[];fillColor=none;resizable=0;rotatable=0;perimeter=centerPerimeter;snapToPoint=1;fontSize=40;fontColor=#000000;strokeColor=#000000;strokeWidth=2;" vertex="1" parent="1">
          <mxGeometry x="700" y="710" width="40" height="40" as="geometry" />
        </mxCell>
        <mxCell id="18uAIJdaMSpTFabtGW1M-66" value="" style="shape=waypoint;sketch=0;fillStyle=solid;size=6;pointerEvents=1;points=[];fillColor=none;resizable=0;rotatable=0;perimeter=centerPerimeter;snapToPoint=1;fontSize=40;fontColor=#000000;strokeColor=#000000;strokeWidth=2;" vertex="1" parent="1">
          <mxGeometry x="740" y="710" width="40" height="40" as="geometry" />
        </mxCell>
        <mxCell id="18uAIJdaMSpTFabtGW1M-67" value="" style="shape=waypoint;sketch=0;fillStyle=solid;size=6;pointerEvents=1;points=[];fillColor=none;resizable=0;rotatable=0;perimeter=centerPerimeter;snapToPoint=1;fontSize=40;fontColor=#000000;strokeColor=#000000;strokeWidth=2;" vertex="1" parent="1">
          <mxGeometry x="700" y="740" width="40" height="40" as="geometry" />
        </mxCell>
        <mxCell id="18uAIJdaMSpTFabtGW1M-68" value="" style="shape=waypoint;sketch=0;fillStyle=solid;size=6;pointerEvents=1;points=[];fillColor=none;resizable=0;rotatable=0;perimeter=centerPerimeter;snapToPoint=1;fontSize=40;fontColor=#000000;strokeColor=#000000;strokeWidth=2;" vertex="1" parent="1">
          <mxGeometry x="740" y="740" width="40" height="40" as="geometry" />
        </mxCell>
        <mxCell id="18uAIJdaMSpTFabtGW1M-69" value="" style="shape=waypoint;sketch=0;fillStyle=solid;size=6;pointerEvents=1;points=[];fillColor=none;resizable=0;rotatable=0;perimeter=centerPerimeter;snapToPoint=1;fontSize=40;fontColor=#000000;strokeColor=#000000;strokeWidth=2;" vertex="1" parent="1">
          <mxGeometry x="700" y="770" width="40" height="40" as="geometry" />
        </mxCell>
        <mxCell id="18uAIJdaMSpTFabtGW1M-70" value="" style="shape=waypoint;sketch=0;fillStyle=solid;size=6;pointerEvents=1;points=[];fillColor=none;resizable=0;rotatable=0;perimeter=centerPerimeter;snapToPoint=1;fontSize=40;fontColor=#000000;strokeColor=#000000;strokeWidth=2;" vertex="1" parent="1">
          <mxGeometry x="740" y="770" width="40" height="40" as="geometry" />
        </mxCell>
        <mxCell id="18uAIJdaMSpTFabtGW1M-71" value="" style="endArrow=none;html=1;rounded=0;fontSize=40;fontColor=#000000;strokeWidth=2;" edge="1" parent="1">
          <mxGeometry width="50" height="50" relative="1" as="geometry">
            <mxPoint x="719.41" y="800" as="sourcePoint" />
            <mxPoint x="719.41" y="600" as="targetPoint" />
          </mxGeometry>
        </mxCell>
        <mxCell id="18uAIJdaMSpTFabtGW1M-72" value="" style="endArrow=none;html=1;rounded=0;fontSize=40;fontColor=#000000;strokeWidth=2;" edge="1" parent="1">
          <mxGeometry width="50" height="50" relative="1" as="geometry">
            <mxPoint x="759.4099999999999" y="800" as="sourcePoint" />
            <mxPoint x="759.4099999999999" y="600" as="targetPoint" />
          </mxGeometry>
        </mxCell>
        <mxCell id="18uAIJdaMSpTFabtGW1M-73" value="" style="shape=waypoint;sketch=0;fillStyle=solid;size=6;pointerEvents=1;points=[];fillColor=none;resizable=0;rotatable=0;perimeter=centerPerimeter;snapToPoint=1;fontSize=40;fontColor=#000000;strokeColor=#000000;strokeWidth=2;" vertex="1" parent="1">
          <mxGeometry x="670" y="620" width="40" height="40" as="geometry" />
        </mxCell>
        <mxCell id="18uAIJdaMSpTFabtGW1M-74" value="" style="shape=waypoint;sketch=0;fillStyle=solid;size=6;pointerEvents=1;points=[];fillColor=none;resizable=0;rotatable=0;perimeter=centerPerimeter;snapToPoint=1;fontSize=40;fontColor=#000000;strokeColor=#000000;strokeWidth=2;" vertex="1" parent="1">
          <mxGeometry x="670" y="650" width="40" height="40" as="geometry" />
        </mxCell>
        <mxCell id="18uAIJdaMSpTFabtGW1M-75" value="" style="shape=waypoint;sketch=0;fillStyle=solid;size=6;pointerEvents=1;points=[];fillColor=none;resizable=0;rotatable=0;perimeter=centerPerimeter;snapToPoint=1;fontSize=40;fontColor=#000000;strokeColor=#000000;strokeWidth=2;" vertex="1" parent="1">
          <mxGeometry x="670" y="680" width="40" height="40" as="geometry" />
        </mxCell>
        <mxCell id="18uAIJdaMSpTFabtGW1M-76" value="" style="shape=waypoint;sketch=0;fillStyle=solid;size=6;pointerEvents=1;points=[];fillColor=none;resizable=0;rotatable=0;perimeter=centerPerimeter;snapToPoint=1;fontSize=40;fontColor=#000000;strokeColor=#000000;strokeWidth=2;" vertex="1" parent="1">
          <mxGeometry x="670" y="710" width="40" height="40" as="geometry" />
        </mxCell>
        <mxCell id="18uAIJdaMSpTFabtGW1M-77" value="" style="shape=waypoint;sketch=0;fillStyle=solid;size=6;pointerEvents=1;points=[];fillColor=none;resizable=0;rotatable=0;perimeter=centerPerimeter;snapToPoint=1;fontSize=40;fontColor=#000000;strokeColor=#000000;strokeWidth=2;" vertex="1" parent="1">
          <mxGeometry x="670" y="740" width="40" height="40" as="geometry" />
        </mxCell>
        <mxCell id="18uAIJdaMSpTFabtGW1M-78" value="" style="shape=waypoint;sketch=0;fillStyle=solid;size=6;pointerEvents=1;points=[];fillColor=none;resizable=0;rotatable=0;perimeter=centerPerimeter;snapToPoint=1;fontSize=40;fontColor=#000000;strokeColor=#000000;strokeWidth=2;" vertex="1" parent="1">
          <mxGeometry x="670" y="770" width="40" height="40" as="geometry" />
        </mxCell>
        <mxCell id="18uAIJdaMSpTFabtGW1M-79" value="" style="shape=waypoint;sketch=0;fillStyle=solid;size=6;pointerEvents=1;points=[];fillColor=none;resizable=0;rotatable=0;perimeter=centerPerimeter;snapToPoint=1;fontSize=40;fontColor=#000000;strokeColor=#000000;strokeWidth=2;" vertex="1" parent="1">
          <mxGeometry x="770" y="620" width="40" height="40" as="geometry" />
        </mxCell>
        <mxCell id="18uAIJdaMSpTFabtGW1M-80" value="" style="shape=waypoint;sketch=0;fillStyle=solid;size=6;pointerEvents=1;points=[];fillColor=none;resizable=0;rotatable=0;perimeter=centerPerimeter;snapToPoint=1;fontSize=40;fontColor=#000000;strokeColor=#000000;strokeWidth=2;" vertex="1" parent="1">
          <mxGeometry x="770" y="650" width="40" height="40" as="geometry" />
        </mxCell>
        <mxCell id="18uAIJdaMSpTFabtGW1M-81" value="" style="shape=waypoint;sketch=0;fillStyle=solid;size=6;pointerEvents=1;points=[];fillColor=none;resizable=0;rotatable=0;perimeter=centerPerimeter;snapToPoint=1;fontSize=40;fontColor=#000000;strokeColor=#000000;strokeWidth=2;" vertex="1" parent="1">
          <mxGeometry x="770" y="680" width="40" height="40" as="geometry" />
        </mxCell>
        <mxCell id="18uAIJdaMSpTFabtGW1M-82" value="" style="shape=waypoint;sketch=0;fillStyle=solid;size=6;pointerEvents=1;points=[];fillColor=none;resizable=0;rotatable=0;perimeter=centerPerimeter;snapToPoint=1;fontSize=40;fontColor=#000000;strokeColor=#000000;strokeWidth=2;" vertex="1" parent="1">
          <mxGeometry x="770" y="710" width="40" height="40" as="geometry" />
        </mxCell>
        <mxCell id="18uAIJdaMSpTFabtGW1M-83" value="" style="shape=waypoint;sketch=0;fillStyle=solid;size=6;pointerEvents=1;points=[];fillColor=none;resizable=0;rotatable=0;perimeter=centerPerimeter;snapToPoint=1;fontSize=40;fontColor=#000000;strokeColor=#000000;strokeWidth=2;" vertex="1" parent="1">
          <mxGeometry x="770" y="740" width="40" height="40" as="geometry" />
        </mxCell>
        <mxCell id="18uAIJdaMSpTFabtGW1M-84" value="" style="shape=waypoint;sketch=0;fillStyle=solid;size=6;pointerEvents=1;points=[];fillColor=none;resizable=0;rotatable=0;perimeter=centerPerimeter;snapToPoint=1;fontSize=40;fontColor=#000000;strokeColor=#000000;strokeWidth=2;" vertex="1" parent="1">
          <mxGeometry x="770" y="770" width="40" height="40" as="geometry" />
        </mxCell>
        <mxCell id="18uAIJdaMSpTFabtGW1M-85" value="" style="endArrow=none;dashed=1;html=1;rounded=0;fontSize=40;fontColor=#000000;strokeWidth=2;" edge="1" parent="1">
          <mxGeometry width="50" height="50" relative="1" as="geometry">
            <mxPoint x="719.41" y="598" as="sourcePoint" />
            <mxPoint x="720" y="540" as="targetPoint" />
          </mxGeometry>
        </mxCell>
        <mxCell id="18uAIJdaMSpTFabtGW1M-87" value="" style="endArrow=none;dashed=1;html=1;rounded=0;fontSize=40;fontColor=#000000;strokeWidth=2;" edge="1" parent="1">
          <mxGeometry width="50" height="50" relative="1" as="geometry">
            <mxPoint x="759.4099999999999" y="597.9999999999998" as="sourcePoint" />
            <mxPoint x="760" y="540" as="targetPoint" />
          </mxGeometry>
        </mxCell>
        <mxCell id="18uAIJdaMSpTFabtGW1M-88" value="" style="endArrow=none;html=1;rounded=0;fontSize=40;fontColor=#000000;strokeWidth=2;" edge="1" parent="1">
          <mxGeometry width="50" height="50" relative="1" as="geometry">
            <mxPoint x="690" y="639.5799999999999" as="sourcePoint" />
            <mxPoint x="720" y="639.5799999999999" as="targetPoint" />
          </mxGeometry>
        </mxCell>
        <mxCell id="18uAIJdaMSpTFabtGW1M-89" value="" style="endArrow=none;html=1;rounded=0;fontSize=40;fontColor=#000000;strokeWidth=2;" edge="1" parent="1">
          <mxGeometry width="50" height="50" relative="1" as="geometry">
            <mxPoint x="690" y="669.5799999999999" as="sourcePoint" />
            <mxPoint x="720" y="669.5799999999999" as="targetPoint" />
          </mxGeometry>
        </mxCell>
        <mxCell id="18uAIJdaMSpTFabtGW1M-90" value="" style="endArrow=none;html=1;rounded=0;fontSize=40;fontColor=#000000;strokeWidth=2;" edge="1" parent="1">
          <mxGeometry width="50" height="50" relative="1" as="geometry">
            <mxPoint x="691" y="699.5799999999999" as="sourcePoint" />
            <mxPoint x="721" y="699.5799999999999" as="targetPoint" />
          </mxGeometry>
        </mxCell>
        <mxCell id="18uAIJdaMSpTFabtGW1M-91" value="" style="endArrow=none;html=1;rounded=0;fontSize=40;fontColor=#000000;strokeWidth=2;" edge="1" parent="1">
          <mxGeometry width="50" height="50" relative="1" as="geometry">
            <mxPoint x="689" y="729.5799999999999" as="sourcePoint" />
            <mxPoint x="719" y="729.5799999999999" as="targetPoint" />
          </mxGeometry>
        </mxCell>
        <mxCell id="18uAIJdaMSpTFabtGW1M-92" value="" style="endArrow=none;html=1;rounded=0;fontSize=40;fontColor=#000000;strokeWidth=2;" edge="1" parent="1">
          <mxGeometry width="50" height="50" relative="1" as="geometry">
            <mxPoint x="690" y="760.5799999999999" as="sourcePoint" />
            <mxPoint x="720" y="760.5799999999999" as="targetPoint" />
          </mxGeometry>
        </mxCell>
        <mxCell id="18uAIJdaMSpTFabtGW1M-93" value="" style="endArrow=none;html=1;rounded=0;fontSize=40;fontColor=#000000;strokeWidth=2;" edge="1" parent="1">
          <mxGeometry width="50" height="50" relative="1" as="geometry">
            <mxPoint x="690" y="790.5799999999999" as="sourcePoint" />
            <mxPoint x="720" y="790.5799999999999" as="targetPoint" />
          </mxGeometry>
        </mxCell>
        <mxCell id="18uAIJdaMSpTFabtGW1M-94" value="" style="endArrow=none;html=1;rounded=0;fontSize=40;fontColor=#000000;strokeWidth=2;" edge="1" parent="1">
          <mxGeometry width="50" height="50" relative="1" as="geometry">
            <mxPoint x="760" y="790.5799999999999" as="sourcePoint" />
            <mxPoint x="790" y="790.5799999999999" as="targetPoint" />
          </mxGeometry>
        </mxCell>
        <mxCell id="18uAIJdaMSpTFabtGW1M-95" value="" style="endArrow=none;html=1;rounded=0;fontSize=40;fontColor=#000000;strokeWidth=2;" edge="1" parent="1">
          <mxGeometry width="50" height="50" relative="1" as="geometry">
            <mxPoint x="760" y="760.5799999999999" as="sourcePoint" />
            <mxPoint x="790" y="760.5799999999999" as="targetPoint" />
          </mxGeometry>
        </mxCell>
        <mxCell id="18uAIJdaMSpTFabtGW1M-96" value="" style="endArrow=none;html=1;rounded=0;fontSize=40;fontColor=#000000;strokeWidth=2;" edge="1" parent="1">
          <mxGeometry width="50" height="50" relative="1" as="geometry">
            <mxPoint x="761" y="730.5799999999999" as="sourcePoint" />
            <mxPoint x="791" y="730.5799999999999" as="targetPoint" />
          </mxGeometry>
        </mxCell>
        <mxCell id="18uAIJdaMSpTFabtGW1M-97" value="" style="endArrow=none;html=1;rounded=0;fontSize=40;fontColor=#000000;strokeWidth=2;" edge="1" parent="1">
          <mxGeometry width="50" height="50" relative="1" as="geometry">
            <mxPoint x="760" y="700.5799999999999" as="sourcePoint" />
            <mxPoint x="790" y="700.5799999999999" as="targetPoint" />
          </mxGeometry>
        </mxCell>
        <mxCell id="18uAIJdaMSpTFabtGW1M-98" value="" style="endArrow=none;html=1;rounded=0;fontSize=40;fontColor=#000000;strokeWidth=2;" edge="1" parent="1">
          <mxGeometry width="50" height="50" relative="1" as="geometry">
            <mxPoint x="760" y="670.5799999999999" as="sourcePoint" />
            <mxPoint x="790" y="670.5799999999999" as="targetPoint" />
          </mxGeometry>
        </mxCell>
        <mxCell id="18uAIJdaMSpTFabtGW1M-99" value="" style="endArrow=none;html=1;rounded=0;fontSize=40;fontColor=#000000;strokeWidth=2;" edge="1" parent="1">
          <mxGeometry width="50" height="50" relative="1" as="geometry">
            <mxPoint x="761" y="639.5799999999999" as="sourcePoint" />
            <mxPoint x="791" y="639.5799999999999" as="targetPoint" />
          </mxGeometry>
        </mxCell>
        <mxCell id="18uAIJdaMSpTFabtGW1M-100" value="" style="endArrow=none;dashed=1;html=1;rounded=0;fontSize=40;fontColor=#000000;strokeWidth=2;" edge="1" parent="1">
          <mxGeometry width="50" height="50" relative="1" as="geometry">
            <mxPoint x="741" y="820" as="sourcePoint" />
            <mxPoint x="740.59" y="500" as="targetPoint" />
          </mxGeometry>
        </mxCell>
        <mxCell id="18uAIJdaMSpTFabtGW1M-101" value="CO-OBSERVATIONAL&lt;br&gt;BACKBONE" style="text;html=1;align=center;verticalAlign=middle;resizable=0;points=[];autosize=1;strokeColor=none;fillColor=none;fontSize=40;fontColor=#000000;" vertex="1" parent="1">
          <mxGeometry x="810" y="670" width="420" height="100" as="geometry" />
        </mxCell>
        <mxCell id="18uAIJdaMSpTFabtGW1M-103" value="" style="shape=stencil(lZzbkhzHDUS/Zl8r6n55luX/UIQok2GaVFC0Lf29Ud7onu3EzBnu23KJ7K4LKpFAofel/PTHx19+//CS4x/fv33954f/fvr1+8eX8reXnD99+fjh26fv9tNL+fml/PTb128f/vHt67+//Pr6799/2Zb7p399/c9+wp+vuFpCzxuV41+vv5kx1PL/3/z9FfD505crIDpAaQBIYV4BY4WRAWADSApIACj2vHoFzDATAGZoUQG5A2CEJICBcygtjKaABKtU6rGIJ6CHHgFg++AAcQEghdGvgBYazcHvQw0LljXPsJoC8gDACHVdAQUnnW2K5QrIuNO5hipDSmFNAOSwlgIiAVKo4t4RvTWtsK770FfIMOlk3nqdQzdvrQAYhyOcAHM+cI1kjnDd6d7CBG9NVZ2v19Bgp1NW5+slZBpSCuV64vrpv3cBS32vR1xVW9QrZ7SJMxghX5/fOi5RD2le7VvI4BYt1Ot8W0HPrqFft6zlUMBPi7Jwizj+cqzeYV+NZeloHv972s/jYDywT1cfreaj5NRhyvPbcY4e2At51Yrraadc7AvON4ZxZaKaD6p5YC9EVE8Pf2Cfr/5jYTHCfI10ruO3qBjx+fF6IC0oRhx/vK6/xUQej9r3I4b+oH1Df/D2FkFhf719ebJfap9Dh/Pl7c1jgeDu2VP49vYRz5ezN4Z81/jNPr5nPY1R67vsx3Gif8w/zT6BLnX+bwxM6sbsx9Xe+ATt5TyafUb/KVd+24yN/iwh2Bh4QTyKqtvNnvlE+MoYuKO/jaX2JGuiqhpj1IZ8nmT89gS0F328V5hU0xHND3vTXTRfF1/Mns5jPtjptJ/IJxYdZDzm/zBf07XOPoE/lCO9OO378cYH9qJ/TAROSoFUP5h9AX+omjGZZiT+qZqSmT3xfw3jeh4Tpw5Nz7tJ0gV84iSx2dN8jT1k/An1Rld9a/a0v935pzEG7Nc4ouEb+wjjH+pvC/X5DP163OeRyj1Q51UydM4vjG0lz0OyTY59jPzB2WytexX7CM6w917UdqgkPot6fz3Sk0f2U9QkOrOdDYku9gtKv6pmR5Vz1Bb6dTznAO/bn8t9s0fyH2GIWuUEdYYh0fo4bo9y7FnFvsN8d+yR6Hss8KMqgdQhMpLVzqaEPVFs7LKFnHZMfrc7yml/VkcpXewrjX8c7nWzz1QUmXreE/qb8YOwbcTkzrSv+FtE/zRt3ZbYU3JnWl9KLhGLA5ZLSPSKKAYsV3HzxeS9qXqIGIws1ypq/6S+mdWezqPlisnZ0/ovVXuczNbzcW/sYb8sl066X2iflZ+f2BfNLp7Y13eOvx01xh+0t3BV32e/3mU/NVt7Yr+02hUxnrbo/ZP8oSWVGxGLCa1oNYf9uVXPJ3Sn0bo/Lw3EXpt+PIPWZ2k1LR5l6fvi0LKjq78xP/ei/pmOgH/fvqo6zIcD3rfvoas9XSrdCto3+0HPd+tTkH9G0vhbcL9G1uyxYLIwzlz9jR6j5zflq4rJ6TA+l2o16o0xjtrHzb7R86euZw+JkoultyQd/XkmjRfjmNB9+6zZ/sRi1Cx6CTMx2ZxVL54WFtNmc9kpX/JMt2E7RSHA0BOwcxSawnQFiIw5jwGWnPmCFYK5VKRbGkFZz3I1L8sjKgzJAMsXLcAvVnK6eBzM9wggZSxLJcizlxHbUABJUQMolS7k0uVuPrY4o0nfA5Br3AEkpEc/h10+4zfIKu2AAO69snYN3ApijzZO64kZD5ABphQIuSC6XaMqgO70DaAl2ooqxADZ1YDxPPiiaMWinB0gzXMbBv51Fo3eADq/QeveHe+JjDVEahqAYr8BelQAVc4MUGSVxlEuegQQtWyATm+YelttANJfBqiyShMTOgNEBxj0hqEK1UIW1QsNkByAaiCz6w1BYdHvY1yJWDWxKDrdG+gOyAAiay2RTxzXpUq9M396Qz188w1g0ipVVW4l8z4U7QQyAEVRr2UK97gYQHypsBo2dSW15Cd3oQYQOWmASZPOqmZKxcA+Hd2XxoovKZEZAN07KZHtIglNOr3zxntGbckwALG3ASSLLCZbYUhedpd1FPIeAfQ8LFQzBuiSmHDlaziRWPkeYwO6Aijs+jnUzFcT0RXfM9PMWXw7AQWjqAFGVgCyd9L6Ua0oTgwg17u7fYWPqEiH2niVspb4DUA5t9GMJBy1Y1HFAN0ByJeMW7XnqGOzngHUWwfeg1hASV0BlHjvxM+9ga7lDaA3Ldxa6qNoPfv9HgGmewMVv00JyFXjLtfRG4brtVp4nTOnhqy68L7L56ItHpndIwmn7Xrcvma6VToUW0KqXI69DUAxbrmaRssYUNaZ0L8BoLp3eVwrzzLF7gAUFJfr8msVC3sGkIsUA1DlZFXV3gYgMl5Vr44aN9oYQFSlAehyZzlVucu5oDUMMBxgUJbVlYzbQIFlAEkt25MyRVe91BamZWvojV+PKLDWqV1OQEL5s06eOwEZxfpyLbhPeoINIEqgs6pcS5VAb5ziL1UCu3OaAcIafWK2awDx1l3LJppZRxvhWTrlu4DlEvCRMT1O0fXmjYK9fHdeUZ+tq9zfjIYX+H4jRseIslyOP+ZRo3rk30vesPBOwI6c0PfOEOgNTS8dZmZicj1ZJnAwZrkmt8lNjL50Mgf27eyiwNX7Jn+LYyOWbw92yeldwvU2qx9U6xb2SPSNqc0Rq/DtSdfIbgDqTRx+0hV3+nYiT0DjC6OodQoDUJ3CaEikwOIyXO8qjdfA6qaRdXUA0qEWcCTzM0In0be/yMgKINFnYVldgz+tae6e3gDkrVtEZgVQG2ed2vf/hm7vI7pzpoUpx8493STw05GkFdc9a2r3WHrtsvmZ+j3GIajeAIgrd7O/zGFiYlaKBt6tP+ibv6zFFnNX7AGKeqe7uAM9L+XKxS3ou+Qr7sqfXe2uyawAkli5a5AzYqK69G4Mc1xJJancVCYaG+MHds3RRkbqM4Ckr/vmhprbmhYfF19/3QFE3jg3B4uKuHFNM+q5nm2cfG5mKTOpk30BL2940l/ujujkBnPvfCYOqAN5f2Inq8SfbNkBklLIbDjpEt23yI2/gY0aFSd/FVaSNioZgAJEyapDd1WLWu+ytrZOTsFvtfoTUFAKlKrNR7Mw3VcnKwsqrOLa12bhr52b2we+3S1dk8utpSkCda0wzcwtnEMDigEoCSrzjrx/0jQppcGZsUvOwq7uA39TUKNjjYTsXaNjjYTlHJMO2QFIYXmtYfqd4oMBJOxO7pWrLrAbgO78DCDV+51S0LI+/xsJ9sPtLyz89unz59c/0PD2//UvMtivXv+aQ/n5fw==);fillColor=none;fontSize=40;fontColor=#000000;strokeColor=#FF0000;strokeWidth=2;" vertex="1" parent="1">
          <mxGeometry x="653.8774980817525" y="590.0018818882535" width="181.53060913085938" height="319.6938650948661" as="geometry" />
        </mxCell>
        <mxCell id="18uAIJdaMSpTFabtGW1M-104" value="$$\mathbb{K} \left( \frac{\partial \mathbb{Q}(F_{n+2})}{\partial \mathbb{K} (F_{n-1})}\right)&amp;lt;&amp;lt; \mathbb{K}(F_n)$$" style="text;html=1;align=center;verticalAlign=middle;resizable=0;points=[];autosize=1;strokeColor=none;fillColor=none;fontSize=40;fontColor=#000000;" vertex="1" parent="1">
          <mxGeometry x="549" y="300" width="1990" height="50" as="geometry" />
        </mxCell>
        <mxCell id="18uAIJdaMSpTFabtGW1M-105" value="&lt;font color=&quot;#ff0000&quot;&gt;$$\mathbb{K} \left( \frac{\partial \mathbb{Q} \{ \mathcal{F,S,A}\}}{\partial \mathbb{K}\{ \mathcal{F,S,A}\}} \right)$$&lt;/font&gt;" style="text;html=1;align=center;verticalAlign=middle;resizable=0;points=[];autosize=1;strokeColor=none;fillColor=none;fontSize=40;fontColor=#000000;" vertex="1" parent="1">
          <mxGeometry x="1200" y="300" width="1990" height="50" as="geometry" />
        </mxCell>
        <mxCell id="18uAIJdaMSpTFabtGW1M-106" value="$$\mathbb{K} \left( \frac{\partial \mathbb{Q}(F)}{\partial \mathbb{K}(F)} \right)$$" style="text;html=1;align=center;verticalAlign=middle;resizable=0;points=[];autosize=1;strokeColor=none;fillColor=none;fontSize=40;fontColor=#FF0000;" vertex="1" parent="1">
          <mxGeometry x="1930" y="300" width="1410" height="50" as="geometry" />
        </mxCell>
        <mxCell id="18uAIJdaMSpTFabtGW1M-110" value="&lt;font color=&quot;#000000&quot;&gt;:= ASSIGNMENT&amp;nbsp;&amp;nbsp;&lt;/font&gt;" style="text;html=1;align=center;verticalAlign=middle;resizable=0;points=[];autosize=1;strokeColor=none;fillColor=none;fontSize=40;fontColor=#FF0000;" vertex="1" parent="1">
          <mxGeometry x="1395" y="675" width="340" height="50" as="geometry" />
        </mxCell>
        <mxCell id="18uAIJdaMSpTFabtGW1M-111" value="$$\equiv$$" style="text;html=1;align=center;verticalAlign=middle;resizable=0;points=[];autosize=1;strokeColor=none;fillColor=none;fontSize=40;fontColor=#000000;" vertex="1" parent="1">
          <mxGeometry x="1320" y="750" width="210" height="50" as="geometry" />
        </mxCell>
        <mxCell id="18uAIJdaMSpTFabtGW1M-112" value="DEFINITION" style="text;html=1;align=center;verticalAlign=middle;resizable=0;points=[];autosize=1;strokeColor=none;fillColor=none;fontSize=40;fontColor=#000000;" vertex="1" parent="1">
          <mxGeometry x="1440" y="750" width="240" height="50" as="geometry" />
        </mxCell>
        <mxCell id="18uAIJdaMSpTFabtGW1M-113" value="$$\overset{c}=$$" style="text;html=1;align=center;verticalAlign=middle;resizable=0;points=[];autosize=1;strokeColor=none;fillColor=none;fontSize=40;fontColor=#000000;" vertex="1" parent="1">
          <mxGeometry x="1265" y="830" width="320" height="50" as="geometry" />
        </mxCell>
        <mxCell id="18uAIJdaMSpTFabtGW1M-114" value="&lt;div style=&quot;text-align: left&quot;&gt;&lt;span&gt;EQUALITY&lt;/span&gt;&lt;/div&gt;&lt;div style=&quot;text-align: left&quot;&gt;&lt;span&gt;ASSERTION&lt;/span&gt;&lt;/div&gt;&lt;div style=&quot;text-align: left&quot;&gt;&lt;span&gt;OVER COMPARATOR C&lt;/span&gt;&lt;/div&gt;" style="text;html=1;align=center;verticalAlign=middle;resizable=0;points=[];autosize=1;strokeColor=none;fillColor=none;fontSize=40;fontColor=#000000;" vertex="1" parent="1">
          <mxGeometry x="1440" y="820" width="460" height="150" as="geometry" />
        </mxCell>
        <mxCell id="18uAIJdaMSpTFabtGW1M-115" value="&lt;font color=&quot;#ff0000&quot;&gt;$$A \mapsto B$$&lt;/font&gt;" style="text;html=1;align=center;verticalAlign=middle;resizable=0;points=[];autosize=1;strokeColor=none;fillColor=none;fontSize=40;fontColor=#000000;" vertex="1" parent="1">
          <mxGeometry x="1380" y="1010" width="320" height="50" as="geometry" />
        </mxCell>
        <mxCell id="18uAIJdaMSpTFabtGW1M-116" value="$$B \leftarrow A$$" style="text;html=1;align=center;verticalAlign=middle;resizable=0;points=[];autosize=1;strokeColor=none;fillColor=none;fontSize=40;fontColor=#FF0000;" vertex="1" parent="1">
          <mxGeometry x="1360" y="1070" width="340" height="50" as="geometry" />
        </mxCell>
        <mxCell id="18uAIJdaMSpTFabtGW1M-117" value="A SENDS TO B" style="text;html=1;align=center;verticalAlign=middle;resizable=0;points=[];autosize=1;strokeColor=none;fillColor=none;fontSize=40;fontColor=#FF0000;" vertex="1" parent="1">
          <mxGeometry x="1680" y="1010" width="290" height="50" as="geometry" />
        </mxCell>
        <mxCell id="18uAIJdaMSpTFabtGW1M-118" value="B RECEIVES FROM A" style="text;html=1;align=center;verticalAlign=middle;resizable=0;points=[];autosize=1;strokeColor=none;fillColor=none;fontSize=40;fontColor=#FF0000;" vertex="1" parent="1">
          <mxGeometry x="1680" y="1080" width="420" height="50" as="geometry" />
        </mxCell>
      </root>
    </mxGraphModel>
  </diagram>
</mxfile>
